PathFileType	4	(X/Y/Z)	/Users/niels/Desktop/University/Third Semester/Perception and Action/Exam/Gymnastics Motion Tracking/Code for Gym Tracking/Analyzed Data/Webcam_Backflip/id5_1_trajectory_Sports2D/id5_1_trajectory_Sports2D_px_person00.trc
DataRate	CameraRate	NumFrames	NumMarkers	Units	OrigDataRate	OrigDataStartFrame	OrigNumFrames
29.76190476190476	29.76190476190476	7	22	m	29.76190476190476	15	126
Frame#	Time	Hip			RHip			RKnee			RAnkle			RBigToe			RSmallToe			RHeel			LHip			LKnee			LAnkle			LBigToe			LSmallToe			LHeel			Neck			Head			Nose			RShoulder			RElbow			RWrist			LShoulder			LElbow			LWrist		
		X1	Y1	Z1	X2	Y2	Z2	X3	Y3	Z3	X4	Y4	Z4	X5	Y5	Z5	X6	Y6	Z6	X7	Y7	Z7	X8	Y8	Z8	X9	Y9	Z9	X10	Y10	Z10	X11	Y11	Z11	X12	Y12	Z12	X13	Y13	Z13	X14	Y14	Z14	X15	Y15	Z15	X16	Y16	Z16	X17	Y17	Z17	X18	Y18	Z18	X19	Y19	Z19	X20	Y20	Z20	X21	Y21	Z21	X22	Y22	Z22
15	0.5040000000000001	0.8586510111971083	-0.6322171233626598	0.0	0.8294492453125007	-0.6336597048602153	0.0	0.8162224437463006	-0.7454137252787475	0.0	0.7870809767091992	-0.850683931156243	0.0	0.7875070866205643	-0.8786658455064683	0.0	0.7674074045395292	-0.8745235943251471	0.0	0.7828366439191697	-0.8618970463660772	0.0	0.8870685395265687	-0.6359103714514132	0.0	0.9116754686139564	-0.7407824918578582	0.0	0.8699503178267035	-0.8381400579333638	0.0	0.9114396487746248	-0.8581235240095848	0.0	0.9099911427815027	-0.8529904803301576	0.0	0.8580028536545014	-0.8520264538835134	0.0	0.869970848941403	-0.44902316888866	0.0	0.8814358278849173	-0.374901512380127	0.0	0.8822658392507235	-0.41783825714337086	0.0	0.8169157869933065	-0.47718717104074815	0.0	0.7859338665590554	-0.5536966179158856	0.0	0.7615543390150212	-0.6274303226719622	0.0	0.9123377381898392	-0.48420774480310436	0.0	0.9101654850716687	-0.5586201868924136	0.0	0.9247080495292237	-0.6385845740816039	0.0
16	0.5376000000000001	0.8532703997455923	-0.6272516539541078	0.0	0.8236059854315169	-0.6289501946709917	0.0	0.807894219167717	-0.7410604365593201	0.0	0.7851900199445813	-0.8502303235602761	0.0	0.7870353720757403	-0.8783451175085492	0.0	0.7666849696461386	-0.8746780795249474	0.0	0.7821193308831368	-0.8615795751764346	0.0	0.8824593507483414	-0.6306269226560844	0.0	0.9123662919931735	-0.7354306795224627	0.0	0.8700335908655064	-0.8289142992646957	0.0	0.9102274192659349	-0.8522391282554204	0.0	0.9099192755372076	-0.8459051014171526	0.0	0.8579360042351162	-0.8421125861984178	0.0	0.8633676302024257	-0.44259039252681825	0.0	0.8740441394258467	-0.3681799305519243	0.0	0.8737573483759957	-0.41094669828533553	0.0	0.8093934486571368	-0.47068246047925044	0.0	0.7798488015918594	-0.5479034935019315	0.0	0.7557201785300567	-0.622132970701348	0.0	0.9073369900723051	-0.47845751772774003	0.0	0.9049890742584656	-0.5536052441096939	0.0	0.9182513315916828	-0.6340429075182141	0.0
17	0.5712	0.8481545461869433	-0.6225907536760436	0.0	0.8181093993299532	-0.6245349742188648	0.0	0.8018766784213618	-0.7367215912285128	0.0	0.7841979500531284	-0.849387592695925	0.0	0.787453616574958	-0.8779565410080766	0.0	0.7669714444023195	-0.8747080354387013	0.0	0.781974029192931	-0.8610872928196011	0.0	0.8780148098805979	-0.6256436783492573	0.0	0.9131255333582101	-0.7301656985070564	0.0	0.8701549057201371	-0.8198960814947911	0.0	0.9079896952332304	-0.847359316393088	0.0	0.9092574152887947	-0.8397350271448736	0.0	0.857764027373461	-0.8318840404395114	0.0	0.8568375388509772	-0.43680909027506265	0.0	0.8666838650329536	-0.36200324614392015	0.0	0.8655064911939528	-0.4045784834508041	0.0	0.8021650526954911	-0.4650942300212137	0.0	0.7739094578028037	-0.5430251252215972	0.0	0.7500319469776928	-0.6179385962127238	0.0	0.9024001935125529	-0.4734124435871229	0.0	0.9006360397891652	-0.5496535540635099	0.0	0.9136714042846322	-0.6302199738154904	0.0
18	0.6048000000000001	0.843425870224496	-0.6186447661977656	0.0	0.8130278325442472	-0.6208341727856855	0.0	0.7976498273423733	-0.7329967980872123	0.0	0.7836928206337136	-0.8484660030461273	0.0	0.7880255955318018	-0.8776888445010876	0.0	0.767589275949394	-0.8747406668647526	0.0	0.7820594236098484	-0.860701222193603	0.0	0.8738524841319293	-0.6213835894561361	0.0	0.9136557415879577	-0.7250795133342175	0.0	0.8702303558343855	-0.8122465826995475	0.0	0.9049857488771151	-0.8442040228195267	0.0	0.9081308271788384	-0.8354669011259893	0.0	0.8574474528291874	-0.8228330226415863	0.0	0.8505118924485617	-0.43193620428584245	0.0	0.8594867993244267	-0.3567227532682514	0.0	0.8576387217324389	-0.3991296456284699	0.0	0.7953609081792181	-0.46081470908716277	0.0	0.7681638607770241	-0.5394185023546488	0.0	0.7445818318881781	-0.615069848537665	0.0	0.8976217657593337	-0.4693107230161574	0.0	0.8971544537821415	-0.546886859621324	0.0	0.9106929452850486	-0.6273920137999056	0.0
19	0.6384000000000001	0.8392181362490849	-0.6156772518862468	0.0	0.808473780333823	-0.6181209102786305	0.0	0.7946476786003212	-0.7304578164669457	0.0	0.7833760442249618	-0.8477443433203667	0.0	0.788419594214276	-0.8777469949634776	0.0	0.7682276665908646	-0.8749559047810624	0.0	0.7821484552989038	-0.860594080239887	0.0	0.8700810642241071	-0.6180725192870669	0.0	0.9136741832194972	-0.7202310202402952	0.0	0.8702479880339108	-0.8070288134317202	0.0	0.9017428228760065	-0.843143118600918	0.0	0.9068387380241878	-0.8336965506247568	0.0	0.8570615930276091	-0.8165212023982921	0.0	0.8445257284746865	-0.4281746258196885	0.0	0.8525606675459894	-0.3525387922018071	0.0	0.8502634855146183	-0.3949004773714179	0.0	0.7890825010685598	-0.45803579322684174	0.0	0.7626721193711155	-0.5372477974845865	0.0	0.7394838630647041	-0.6135877876937786	0.0	0.8930961960185866	-0.466225343812858	0.0	0.894530849190843	-0.545145178001022	0.0	0.9090633833628603	-0.6253323560997052	0.0
20	0.6720000000000002	0.8356200991060059	-0.6138071363547963	0.0	0.8045469790803096	-0.6165113310748565	0.0	0.7924128783311273	-0.729446886591582	0.0	0.78308297797506	-0.8474269426617717	0.0	0.7886500327592723	-0.8782761786008821	0.0	0.768841146779341	-0.8755129721378544	0.0	0.7821381782813286	-0.8608550594756932	0.0	0.8667535408022022	-0.6157902731871039	0.0	0.912985154120962	-0.7157026076437174	0.0	0.8702975613825042	-0.8048616021500685	0.0	0.8989540499182398	-0.844051642542739	0.0	0.9057959044098606	-0.8343975276216988	0.0	0.8568084860231395	-0.8140271019312607	0.0	0.8389917043964962	-0.4257041742008175	0.0	0.8459859116052152	-0.34954256411442164	0.0	0.8434694349871633	-0.3920922524917773	0.0	0.7833746134946127	-0.4567681984580031	0.0	0.7574994962536704	-0.5364993681366154	0.0	0.7348613107184531	-0.6134505395098643	0.0	0.8888881582365259	-0.46411937087062627	0.0	0.8927064350752169	-0.5441281164418899	0.0	0.9085537495585155	-0.6236438324318897	0.0
21	0.7056000000000001	0.8326345272850117	-0.6130535040619147	0.0	0.8012795372414808	-0.6160104666326438	0.0	0.7906560487273852	-0.7300183613367504	0.0	0.7828001837799858	-0.84767172805682	0.0	0.7888801541040004	-0.8793599832492605	0.0	0.7694957203261289	-0.8765329347392247	0.0	0.7820644247492912	-0.8615748688884307	0.0	0.8638557393288989	-0.6145652540413806	0.0	0.9115122162069491	-0.7116814083550597	0.0	0.8705443001200978	-0.8057925467290687	0.0	0.8972416539097422	-0.8465026864743725	0.0	0.9053817355623213	-0.8371076429360119	0.0	0.8569563411488287	-0.8155871826859503	0.0	0.8339889159489644	-0.4246435499513198	0.0	0.8398411776581166	-0.34778776043637	0.0	0.8373230927611014	-0.3908048254091277	0.0	0.7782623540720586	-0.456898451148113	0.0	0.7527500682024606	-0.5370436672453596	0.0	0.7308706724006118	-0.6145335858037225	0.0	0.8850433650025161	-0.46291941789856694	0.0	0.891608735272487	-0.5435880641926342	0.0	0.9088969670033245	-0.6221102132962738	0.0
